<svg xmlns="http://www.w3.org/2000/svg" width="35" height="35" fill="none" viewBox="0 0 35 35"><path fill="#fff" fill-rule="evenodd" d="M17.5 0C7.835 0 0 7.835 0 17.5S7.835 35 17.5 35 35 27.165 35 17.5 27.165 0 17.5 0Zm-3.8477 8.223c.9956-.0453 1.3137-.0564 3.8485-.0564h-.0029c2.5356 0 2.8525.011 3.8481.0564.9936.0455 1.6722.2028 2.2672.4336.6145.2382 1.1337.557 1.6528 1.0763.5192.5187.8381 1.0395 1.0773 1.6533.2294.5935.3869 1.2717.4336 2.2653.0447.9956.0564 1.3137.0564 3.8485 0 2.5348-.0117 2.8522-.0564 3.8477-.0467.9933-.2042 1.6717-.4336 2.2653-.2392.6137-.5581 1.1344-1.0773 1.6532-.5186.5192-1.0385.8389-1.6522 1.0773-.5938.2308-1.2728.3881-2.2665.4336-.9955.0453-1.3127.0564-3.8477.0564-2.5346 0-2.8525-.0111-3.8481-.0564-.9934-.0455-1.6718-.2028-2.2656-.4336-.6135-.2384-1.1343-.5581-1.6528-1.0773-.519-.5188-.838-1.0395-1.0765-1.6534-.2306-.5934-.388-1.2716-.4336-2.2653-.0451-.9955-.0564-1.3127-.0564-3.8475s.0117-2.8531.0562-3.8487c.0447-.9932.2022-1.6716.4336-2.2653.2392-.6136.558-1.1344 1.0772-1.6531.5188-.519 1.0396-.838 1.6534-1.0763.5935-.2308 1.2717-.3881 2.2653-.4336Z" clip-rule="evenodd"/><path fill="#fff" fill-rule="evenodd" d="M16.6637 9.8486c.1625-.0002.3374-.0001.5262 0h.3111c2.492 0 2.7873.009 3.7714.0537.91.0416 1.4039.1937 1.7329.3214.4356.1692.7461.3714 1.0726.6981.3267.3267.5289.6378.6985 1.0733.1277.3287.28.8226.3214 1.7326.0447.9839.0544 1.2794.0544 3.7703 0 2.4908-.0097 2.7864-.0544 3.7703-.0416.91-.1937 1.4039-.3214 1.7325-.1692.4356-.3718.7457-.6985 1.0722-.3267.3267-.6368.5289-1.0726.6981-.3286.1283-.8229.28-1.7329.3216-.9839.0447-1.2794.0544-3.7714.0544-2.4923 0-2.7876-.0097-3.7715-.0544-.91-.042-1.4039-.1941-1.7331-.3218-.4356-.1692-.7467-.3714-1.0734-.6981-.3266-.3267-.5289-.637-.6984-1.0728-.1278-.3286-.28-.8225-.3215-1.7325-.0447-.9839-.0536-1.2794-.0536-3.7719 0-2.4924.009-2.7864.0536-3.7703.0417-.91.1937-1.4039.3215-1.7329.1691-.4355.3718-.7467.6984-1.0733.3267-.3267.6378-.5289 1.0734-.6985.329-.1283.8231-.28 1.7331-.3218.861-.0389 1.1947-.0505 2.9342-.0525v.0023Zm5.8191 1.5498c-.6183 0-1.12.5011-1.12 1.1196 0 .6183.5017 1.12 1.12 1.12.6184 0 1.12-.5017 1.12-1.12 0-.6183-.5016-1.12-1.12-1.12v.0004Zm-9.7751 6.1018c0-2.647 2.1461-4.7931 4.7931-4.7931h-.0002c2.647 0 4.7925 2.1461 4.7925 4.7931s-2.1453 4.7921-4.7923 4.7921-4.7931-2.1451-4.7931-4.7921Z" clip-rule="evenodd"/><path fill="#fff" fill-rule="evenodd" d="M17.501 14.389c1.7182 0 3.1112 1.3929 3.1112 3.1112 0 1.7181-1.393 3.1111-3.1112 3.1111-1.7183 0-3.1111-1.393-3.1111-3.1111 0-1.7183 1.3928-3.1112 3.1111-3.1112Z" clip-rule="evenodd"/></svg>